#define gray1_width 32
#define gray1_height 32
static char gray1_bits[] = {
   0x88, 0x88, 0x88, 0x88, 0x00, 0x00, 0x00, 0x00, 0x22, 0x22, 0x22, 0x22,
   0x00, 0x00, 0x00, 0x00, 0x88, 0x88, 0x88, 0x88, 0x00, 0x00, 0x00, 0x00,
   0x22, 0x22, 0x22, 0x22, 0x00, 0x00, 0x00, 0x00, 0x88, 0x88, 0x88, 0x88,
   0x00, 0x00, 0x00, 0x00, 0x22, 0x22, 0x22, 0x22, 0x00, 0x00, 0x00, 0x00,
   0x88, 0x88, 0x88, 0x88, 0x00, 0x00, 0x00, 0x00, 0x22, 0x22, 0x22, 0x22,
   0x00, 0x00, 0x00, 0x00, 0x88, 0x88, 0x88, 0x88, 0x00, 0x00, 0x00, 0x00,
   0x22, 0x22, 0x22, 0x22, 0x00, 0x00, 0x00, 0x00, 0x88, 0x88, 0x88, 0x88,
   0x00, 0x00, 0x00, 0x00, 0x22, 0x22, 0x22, 0x22, 0x00, 0x00, 0x00, 0x00,
   0x88, 0x88, 0x88, 0x88, 0x00, 0x00, 0x00, 0x00, 0x22, 0x22, 0x22, 0x22,
   0x00, 0x00, 0x00, 0x00, 0x88, 0x88, 0x88, 0x88, 0x00, 0x00, 0x00, 0x00,
   0x22, 0x22, 0x22, 0x22, 0x00, 0x00, 0x00, 0x00};
