#define gray3_width 32
#define gray3_height 32
static char gray3_bits[] = {
   0x88, 0x88, 0x88, 0x88, 0x22, 0x22, 0x22, 0x22, 0x88, 0x88, 0x88, 0x88,
   0x22, 0x22, 0x22, 0x22, 0x88, 0x88, 0x88, 0x88, 0x22, 0x22, 0x22, 0x22,
   0x88, 0x88, 0x88, 0x88, 0x22, 0x22, 0x22, 0x22, 0x88, 0x88, 0x88, 0x88,
   0x22, 0x22, 0x22, 0x22, 0x88, 0x88, 0x88, 0x88, 0x22, 0x22, 0x22, 0x22,
   0x88, 0x88, 0x88, 0x88, 0x22, 0x22, 0x22, 0x22, 0x88, 0x88, 0x88, 0x88,
   0x22, 0x22, 0x22, 0x22, 0x88, 0x88, 0x88, 0x88, 0x22, 0x22, 0x22, 0x22,
   0x88, 0x88, 0x88, 0x88, 0x22, 0x22, 0x22, 0x22, 0x88, 0x88, 0x88, 0x88,
   0x22, 0x22, 0x22, 0x22, 0x88, 0x88, 0x88, 0x88, 0x22, 0x22, 0x22, 0x22,
   0x88, 0x88, 0x88, 0x88, 0x22, 0x22, 0x22, 0x22, 0x88, 0x88, 0x88, 0x88,
   0x22, 0x22, 0x22, 0x22, 0x88, 0x88, 0x88, 0x88, 0x22, 0x22, 0x22, 0x22,
   0x88, 0x88, 0x88, 0x88, 0x22, 0x22, 0x22, 0x22};
