#define eng_width 80
#define eng_height 80
#define eng_x_hot 39
#define eng_y_hot 39
static char eng_bits[] = {
   0x00, 0x00, 0x00, 0x00, 0x00, 0x00, 0x00, 0x00, 0x00, 0x00, 0x00, 0x00,
   0x00, 0x00, 0xfe, 0x3f, 0x00, 0x00, 0x00, 0x00, 0x00, 0x00, 0x00, 0x00,
   0xfe, 0x3f, 0x00, 0x00, 0x00, 0x00, 0x00, 0x00, 0x00, 0xf0, 0xff, 0xff,
   0x07, 0x00, 0x00, 0x00, 0x00, 0x00, 0x00, 0xff, 0x01, 0xc0, 0x7f, 0x00,
   0x00, 0x00, 0x00, 0x00, 0xe0, 0x0e, 0xc0, 0x01, 0xb8, 0x03, 0x00, 0x00,
   0x00, 0x00, 0xf0, 0x01, 0xc0, 0x01, 0xc0, 0x04, 0x00, 0x00, 0x00, 0x00,
   0xf0, 0x01, 0xc0, 0x01, 0xc0, 0x04, 0x00, 0x00, 0x00, 0x00, 0x7c, 0x00,
   0x80, 0x00, 0x00, 0x1f, 0x00, 0x00, 0x00, 0x00, 0x0f, 0x00, 0x80, 0x00,
   0x00, 0x78, 0x00, 0x00, 0x00, 0xc0, 0x03, 0x00, 0x00, 0x00, 0x00, 0xe0,
   0x01, 0x00, 0x00, 0xe0, 0x00, 0x00, 0x00, 0x00, 0x00, 0x80, 0x02, 0x00,
   0x00, 0xe0, 0x00, 0x00, 0x00, 0x00, 0x00, 0x80, 0x02, 0x00, 0x00, 0x78,
   0x00, 0x00, 0x00, 0x00, 0x00, 0x00, 0x0d, 0x00, 0x00, 0x3c, 0x00, 0x00,
   0x00, 0x00, 0x00, 0x60, 0x12, 0x00, 0x00, 0x1c, 0x00, 0x00, 0x00, 0x00,
   0x00, 0xe0, 0x1c, 0x00, 0x00, 0x06, 0x00, 0x00, 0x00, 0x00, 0x00, 0xe0,
   0x31, 0x00, 0x00, 0x06, 0x00, 0x00, 0x00, 0x00, 0x00, 0xe0, 0x31, 0x00,
   0x00, 0x03, 0x00, 0x00, 0x00, 0x00, 0x00, 0x70, 0x60, 0x00, 0x00, 0x03,
   0x00, 0x00, 0x00, 0x00, 0x00, 0x00, 0x60, 0x00, 0xc0, 0x01, 0x00, 0x00,
   0x00, 0x00, 0x00, 0x00, 0xc0, 0x01, 0xe0, 0x01, 0x00, 0x00, 0x00, 0x00,
   0x00, 0x00, 0x40, 0x02, 0xe0, 0x01, 0x00, 0x00, 0x00, 0x00, 0x00, 0x00,
   0x40, 0x02, 0xe0, 0x00, 0x00, 0x00, 0x00, 0x00, 0x00, 0x00, 0x80, 0x03,
   0xf0, 0x00, 0x00, 0x00, 0x00, 0x00, 0x00, 0x00, 0x80, 0x05, 0x30, 0x00,
   0x00, 0x00, 0x00, 0x00, 0x00, 0x00, 0x00, 0x06, 0x30, 0x00, 0x00, 0x00,
   0x00, 0x00, 0x00, 0x00, 0x00, 0x06, 0x30, 0x00, 0x00, 0x00, 0x00, 0x00,
   0x00, 0x00, 0x00, 0x06, 0x18, 0x00, 0x00, 0x00, 0x00, 0x00, 0x00, 0x00,
   0x00, 0x0c, 0x18, 0x00, 0x00, 0x00, 0x00, 0x00, 0x00, 0x00, 0x00, 0x0c,
   0x18, 0x00, 0x00, 0x00, 0x00, 0x00, 0x00, 0x00, 0x00, 0x0c, 0x18, 0x00,
   0x00, 0x00, 0x00, 0x00, 0x00, 0x00, 0x00, 0x0c, 0x18, 0x00, 0x00, 0x00,
   0x00, 0x00, 0x00, 0x00, 0x00, 0x0c, 0x0e, 0x00, 0x00, 0x00, 0x00, 0x00,
   0x00, 0x00, 0x00, 0x38, 0x0e, 0x00, 0x00, 0x00, 0x00, 0x00, 0x00, 0x00,
   0x00, 0x38, 0x0e, 0x88, 0x31, 0x00, 0x00, 0x00, 0x00, 0x60, 0x0c, 0x38,
   0x0e, 0x4c, 0x4a, 0x00, 0x00, 0x00, 0x00, 0x90, 0x12, 0x38, 0x0e, 0x48,
   0x4a, 0x00, 0x00, 0x00, 0x00, 0x10, 0x12, 0x38, 0xee, 0x49, 0x4a, 0x00,
   0x00, 0x00, 0x00, 0x10, 0xd2, 0x3b, 0x2e, 0x49, 0x4a, 0x00, 0x80, 0x00,
   0x00, 0x70, 0x52, 0x3a, 0xee, 0x49, 0x4a, 0x00, 0x00, 0x00, 0x00, 0x90,
   0xd2, 0x3b, 0x0e, 0x48, 0x4a, 0x00, 0x00, 0x00, 0x00, 0x90, 0x12, 0x38,
   0x0e, 0x48, 0x4a, 0x00, 0x00, 0x00, 0x00, 0x90, 0x12, 0x38, 0x0e, 0x9c,
   0x31, 0x00, 0x00, 0x00, 0x00, 0x60, 0x0c, 0x38, 0x0e, 0x00, 0x00, 0x00,
   0x00, 0x00, 0x00, 0x00, 0x00, 0x38, 0x0e, 0x00, 0x00, 0xf0, 0x3c, 0x21,
   0x26, 0x00, 0x00, 0x38, 0x18, 0x00, 0x00, 0x10, 0x45, 0x21, 0x26, 0x00,
   0x00, 0x0c, 0x18, 0x00, 0x00, 0x10, 0x45, 0x21, 0x20, 0x00, 0x00, 0x0c,
   0x18, 0x00, 0x00, 0x10, 0x45, 0x33, 0x18, 0x00, 0x00, 0x0c, 0x18, 0x00,
   0x00, 0x10, 0x45, 0x2d, 0x18, 0x00, 0x00, 0x0c, 0x18, 0x00, 0x00, 0xf0,
   0x3c, 0x2d, 0x04, 0x00, 0x00, 0x0c, 0x30, 0x00, 0x00, 0x50, 0x04, 0x21,
   0x02, 0x00, 0x00, 0x06, 0x30, 0x00, 0x00, 0x90, 0x04, 0x21, 0x02, 0x00,
   0x00, 0x06, 0x30, 0x00, 0x00, 0x10, 0x05, 0x21, 0x32, 0x00, 0x00, 0x06,
   0xf0, 0x00, 0x00, 0x10, 0x05, 0x21, 0x30, 0x00, 0x80, 0x07, 0xe0, 0x00,
   0x00, 0x00, 0x00, 0x00, 0x00, 0x00, 0x80, 0x03, 0xe0, 0x01, 0x00, 0x00,
   0x00, 0x00, 0x00, 0x00, 0xc0, 0x03, 0xe0, 0x01, 0x00, 0x00, 0x00, 0x00,
   0x00, 0x00, 0xc0, 0x03, 0xc0, 0x01, 0x00, 0x00, 0x00, 0x00, 0x00, 0x00,
   0xc0, 0x01, 0x00, 0x03, 0x00, 0x00, 0x00, 0x00, 0x00, 0x00, 0x60, 0x00,
   0x00, 0x03, 0x04, 0x00, 0x30, 0x06, 0x00, 0x10, 0x70, 0x00, 0x00, 0xc6,
   0x07, 0x00, 0x48, 0x09, 0x00, 0xf0, 0x31, 0x00, 0x00, 0xc6, 0x07, 0x00,
   0x48, 0x09, 0x00, 0xf0, 0x31, 0x00, 0x00, 0x9c, 0x03, 0x00, 0x48, 0x09,
   0x00, 0xe0, 0x1c, 0x00, 0x00, 0x7c, 0x03, 0x00, 0x30, 0x09, 0x00, 0x60,
   0x1e, 0x00, 0x00, 0x78, 0x00, 0x00, 0x48, 0x09, 0x00, 0x00, 0x0f, 0x00,
   0x00, 0xe0, 0x00, 0x00, 0x48, 0x09, 0x00, 0x80, 0x03, 0x00, 0x00, 0xe0,
   0x00, 0x00, 0x48, 0x09, 0x00, 0x80, 0x03, 0x00, 0x00, 0xc0, 0x03, 0x00,
   0x30, 0x06, 0x00, 0xe0, 0x01, 0x00, 0x00, 0x80, 0x0f, 0x00, 0x80, 0x00,
   0x00, 0x7c, 0x00, 0x00, 0x00, 0x00, 0x7c, 0x00, 0x80, 0x00, 0x00, 0x1f,
   0x00, 0x00, 0x00, 0x00, 0xf8, 0x01, 0x40, 0x01, 0xc0, 0x07, 0x00, 0x00,
   0x00, 0x00, 0xf0, 0x01, 0x40, 0x01, 0xc0, 0x07, 0x00, 0x00, 0x00, 0x00,
   0xe0, 0x0f, 0xc0, 0x01, 0xf8, 0x03, 0x00, 0x00, 0x00, 0x00, 0x00, 0xff,
   0x01, 0xc0, 0x7f, 0x00, 0x00, 0x00, 0x00, 0x00, 0x00, 0xf0, 0xff, 0xff,
   0x07, 0x00, 0x00, 0x00, 0x00, 0x00, 0x00, 0x00, 0xfe, 0x3f, 0x00, 0x00,
   0x00, 0x00, 0x00, 0x00, 0x00, 0x00, 0xfe, 0x3f, 0x00, 0x00, 0x00, 0x00,
   0x00, 0x00, 0x00, 0x00, 0x00, 0x00, 0x00, 0x00, 0x00, 0x00, 0x00, 0x00,
   0x00, 0x00, 0x00, 0x00, 0x00, 0x00, 0x00, 0x00};
